<?xml version="1.0" encoding="UTF-8" standalone="no"?>
<!-- Created with Inkscape (http://www.inkscape.org/) -->

<svg
   xmlns:dc="http://purl.org/dc/elements/1.1/"
   xmlns:cc="http://creativecommons.org/ns#"
   xmlns:rdf="http://www.w3.org/1999/02/22-rdf-syntax-ns#"
   xmlns:svg="http://www.w3.org/2000/svg"
   xmlns="http://www.w3.org/2000/svg"
   version="1.1"
   width="1000"
   height="500"
   id="svg2">
  <defs
     id="defs4" />
  <metadata
     id="metadata7">
    <rdf:RDF>
      <cc:Work
         rdf:about="">
        <dc:format>image/svg+xml</dc:format>
        <dc:type
           rdf:resource="http://purl.org/dc/dcmitype/StillImage" />
        <dc:title></dc:title>
      </cc:Work>
    </rdf:RDF>
  </metadata>
  <g
     transform="translate(0,-552.36218)"
     id="layer1">
    <path
       d="m 249.23702,881.71781 c -20,10 -79.28571,60.71424 -139.28571,20.71428 -59.999998,-40 0,-60 0,-100 0,-40 -59.999998,-100 0,-140 60,-40 124.28571,49.28572 139.28571,59.28572 0,0 29.28571,29.28572 249.28571,29.28572 220,0 251.52596,-28.59494 251.52596,-28.59494 19.18833,-10.69078 80,-60 140,-20 60,40 0,60 0,100 0,40 60,100 0,139.99996 -60,40 -125.81167,-50.69074 -140,-59.99996 0,0 -30.81167,-30.69078 -250.81167,-30.69078 -220,0 -250,30 -250,30 z"
       id="path2989"
       style="fill:#ff2a2a;stroke:none" />
  </g>
</svg>
