<?xml version="1.0" encoding="UTF-8" standalone="no"?>
<!-- Created with Inkscape (http://www.inkscape.org/) -->

<svg
   xmlns:dc="http://purl.org/dc/elements/1.1/"
   xmlns:cc="http://creativecommons.org/ns#"
   xmlns:rdf="http://www.w3.org/1999/02/22-rdf-syntax-ns#"
   xmlns:svg="http://www.w3.org/2000/svg"
   xmlns="http://www.w3.org/2000/svg"
   version="1.1"
   width="400"
   height="400"
   viewBox="0 0 400 400"
   id="svg2">
  <defs
     id="defs4" />
  <metadata
     id="metadata7">
    <rdf:RDF>
      <cc:Work
         rdf:about="">
        <dc:format>image/svg+xml</dc:format>
        <dc:type
           rdf:resource="http://purl.org/dc/dcmitype/StillImage" />
        <dc:title></dc:title>
      </cc:Work>
    </rdf:RDF>
  </metadata>
  <g
     transform="translate(0,-652.36218)"
     id="layer1">
    <path
       d="m 220,857.36218 -52,-162 c 0,120 -50,160 -50,160 l 60,0 c 15.40713,1.60304 27,2 27,12 -38,17 -60,20 -105,20 22,27 35,50 -2,78 -13.924319,8.35459 -33,7 -33,-8 0,-20 25,-20 20,-5 20,0 15,-30 -5,-30 -20,0 -35,15 -35,35 0,20 10,35 30,35 45.6455,0.14344 55,-35 75,-60 40,-45 75,25 30,25 10,-15 5,-20 0,-20 -10,0 -18.18762,10.10989 -20,25 -1.21717,10 0,30 30,30 45,0 38,-67 78,-87 50,-30 80,40 30,50 9.11223,-9.11223 11.76636,-17.30188 10.48443,-23.30792 C 305,917.36218 277,919.36218 270,942.36218 c -6.81592,22.39516 5,50 40,50 95,0 60,-190 -52,-117 0,0 13.42023,-8.24456 20,-20 11.80205,-21.08556 -3.5795,-57.159 -10,-70 0,50 -48,72 -48,72 z"
       id="path2987"
       style="fill:none;stroke:#000000;stroke-width:10;stroke-linecap:round;stroke-linejoin:round;stroke-opacity:1" />
  </g>
</svg>
