<?xml version="1.0" encoding="UTF-8" standalone="no"?>
<!-- Created with Inkscape (http://www.inkscape.org/) -->

<svg
   xmlns:dc="http://purl.org/dc/elements/1.1/"
   xmlns:cc="http://creativecommons.org/ns#"
   xmlns:rdf="http://www.w3.org/1999/02/22-rdf-syntax-ns#"
   xmlns:svg="http://www.w3.org/2000/svg"
   xmlns="http://www.w3.org/2000/svg"
   xmlns:sodipodi="http://sodipodi.sourceforge.net/DTD/sodipodi-0.dtd"
   xmlns:inkscape="http://www.inkscape.org/namespaces/inkscape"
   version="1.1"
   width="850"
   height="850"
   id="svg2"
   inkscape:version="0.48.4 r9939"
   sodipodi:docname="icon.svg">
  <sodipodi:namedview
     pagecolor="#ffffff"
     bordercolor="#666666"
     borderopacity="1"
     objecttolerance="10"
     gridtolerance="10"
     guidetolerance="10"
     inkscape:pageopacity="0"
     inkscape:pageshadow="2"
     inkscape:window-width="1920"
     inkscape:window-height="1056"
     id="namedview7"
     showgrid="false"
     inkscape:zoom="0.306"
     inkscape:cx="-93.137255"
     inkscape:cy="250"
     inkscape:window-x="0"
     inkscape:window-y="24"
     inkscape:window-maximized="1"
     inkscape:current-layer="svg2" />
  <defs
     id="defs4" />
  <metadata
     id="metadata7">
    <rdf:RDF>
      <cc:Work
         rdf:about="">
        <dc:format>image/svg+xml</dc:format>
        <dc:type
           rdf:resource="http://purl.org/dc/dcmitype/StillImage" />
        <dc:title></dc:title>
      </cc:Work>
    </rdf:RDF>
  </metadata>
  <g
     transform="translate(-75,-377.36218)"
     id="layer1"
     style="fill:#ff4136;fill-opacity:1">
    <path
       d="m 249.23702,881.71781 c -20,10 -79.28571,60.71424 -139.28571,20.71428 -59.999998,-40 0,-60 0,-100 0,-40 -59.999998,-100 0,-140 60,-40 124.28571,49.28572 139.28571,59.28572 0,0 29.28571,29.28572 249.28571,29.28572 220,0 251.52596,-28.59494 251.52596,-28.59494 19.18833,-10.69078 80,-60 140,-20 60,40 0,60 0,100 0,40 60,100 0,139.99996 -60,40 -125.81167,-50.69074 -140,-59.99996 0,0 -30.81167,-30.69078 -250.81167,-30.69078 -220,0 -250,30 -250,30 z"
       id="path2989"
       style="fill:#ff4136;stroke:none;fill-opacity:1"
       inkscape:connector-curvature="0" />
  </g>
</svg>
